<svg width="520" height="400" xmlns="http://www.w3.org/2000/svg">
 <!-- Created with Method Draw - http://github.com/duopixel/Method-Draw/ -->

 <g>
  <title>background</title>
  <rect fill="#fff" id="canvas_background" height="402" width="582" y="-1" x="-1"/>
 </g>
 <g>
  <title>Layer 1</title>
  <style transform="matrix(0.4453346944332601,0,0,0.4453346944332601,0,0) " type="text/css">.st0{fill:#9D9DA6;}</style>
  <g id="svg_14">
   <g id="svg_5">
    <g id="svg_6">
     <path id="svg_7" d="m-551.331,-345.227252c-1.1,0 -1.3,0.6 -0.5,1.3l62,50.7c0.9,0.7 2.2,0.7 3.1,0l63,-50.7c0.9,-0.7 0.7,-1.3 -0.4,-1.3l-127.2,0z" class="st0"/>
    </g>
    <g id="svg_8">
     <path id="svg_9" d="m-558.331,-337.627252c0,-1.1 0.7,-1.4 1.5,-0.7l43.4,36.5c0.8,0.7 0.8,1.9 0,2.6l-43.3,35.9c-0.8,0.7 -1.5,0.4 -1.5,-0.7l0,-73.6l-0.1,0z" class="st0"/>
    </g>
    <g id="svg_10">
     <path id="svg_11" d="m-418.131,-338.427252c0.9,-0.7 1.6,-0.4 1.6,0.7l0,73.6c0,1.1 -0.7,1.4 -1.6,0.7l-44.6,-36.3c-0.9,-0.7 -0.9,-1.8 0,-2.5l44.6,-36.2z" class="st0"/>
    </g>
    <g id="svg_12">
     <path id="svg_13" d="m-551.831,-257.427252c-0.9,0.7 -0.6,1.3 0.5,1.3l127.2,0c1.1,0 1.3,-0.6 0.5,-1.3l-45.2,-36.9c-0.9,-0.7 -2.3,-0.7 -3.1,0l-14.1,11c-0.9,0.7 -2.3,0.7 -3.2,0l-14.1,-11c-0.9,-0.7 -2.3,-0.7 -3.1,0l-45.4,36.9z" class="st0"/>
    </g>
   </g>
  </g>
  <style transform="matrix(0.4453346944332601,0,0,0.4453346944332601,0,0) " type="text/css">.st0{fill:#9D9DA6;}</style>
  <style transform="matrix(0.4453346944332601,0,0,0.4453346944332601,0,0) " type="text/css">.st0{fill:#9D9DA6;}</style>
  <g stroke="null" id="svg_42">
   <g stroke="null" transform="matrix(3.1392696721200655,0,0,3.1392696721200655,-1279.767499963676,-1006.4958296010418) " id="svg_33">
    <g stroke="null" id="svg_34">
     <path stroke="null" id="svg_35" d="m427.223022,339.141371c-1.1,0 -1.3,0.6 -0.5,1.3l62,50.7c0.9,0.7 2.2,0.7 3.1,0l63,-50.7c0.9,-0.7 0.7,-1.3 -0.4,-1.3l-127.2,0z" class="st0"/>
    </g>
    <g stroke="null" id="svg_36">
     <path stroke="null" id="svg_37" d="m420.223022,346.741371c0,-1.1 0.7,-1.4 1.5,-0.7l43.4,36.5c0.8,0.7 0.8,1.9 0,2.6l-43.3,35.9c-0.8,0.7 -1.5,0.4 -1.5,-0.7l0,-73.6l-0.1,0z" class="st0"/>
    </g>
    <g stroke="null" id="svg_38">
     <path stroke="null" id="svg_39" d="m560.423022,345.941371c0.9,-0.7 1.6,-0.4 1.6,0.7l0,73.6c0,1.1 -0.7,1.4 -1.6,0.7l-44.6,-36.3c-0.9,-0.7 -0.9,-1.8 0,-2.5l44.6,-36.2z" class="st0"/>
    </g>
    <g stroke="null" id="svg_40">
     <path stroke="null" id="svg_41" d="m426.723022,426.941371c-0.9,0.7 -0.6,1.3 0.5,1.3l127.2,0c1.1,0 1.3,-0.6 0.5,-1.3l-45.2,-36.9c-0.9,-0.7 -2.3,-0.7 -3.1,0l-14.1,11c-0.9,0.7 -2.3,0.7 -3.2,0l-14.1,-11c-0.9,-0.7 -2.3,-0.7 -3.1,0l-45.4,36.9z" class="st0"/>
    </g>
   </g>
  </g>
 </g>
</svg>