<?xml version="1.0" encoding="utf-8"?>
<!-- Generator: Adobe Illustrator 19.1.0, SVG Export Plug-In . SVG Version: 6.00 Build 0)  -->
<svg version="1.1" id="All_glyphs" xmlns="http://www.w3.org/2000/svg" xmlns:xlink="http://www.w3.org/1999/xlink" x="0px" y="0px"
	 viewBox="0 0 199.8 202" style="enable-background:new 0 0 199.8 202;" xml:space="preserve">
<style type="text/css">
	.st0{fill:#9D9DA6;}
</style>
<g>
	<g>
		<path class="st0" d="M38.1,57.3c-1.1,0-1.3,0.6-0.5,1.3l62,50.7c0.9,0.7,2.2,0.7,3.1,0l63-50.7c0.9-0.7,0.7-1.3-0.4-1.3H38.1z"/>
	</g>
	<g>
		<path class="st0" d="M31.1,64.9c0-1.1,0.7-1.4,1.5-0.7L76,100.7c0.8,0.7,0.8,1.9,0,2.6l-43.3,35.9c-0.8,0.7-1.5,0.4-1.5-0.7V64.9z
			"/>
	</g>
	<g>
		<path class="st0" d="M171.3,64.1c0.9-0.7,1.6-0.4,1.6,0.7v73.6c0,1.1-0.7,1.4-1.6,0.7l-44.6-36.3c-0.9-0.7-0.9-1.8,0-2.5
			L171.3,64.1z"/>
	</g>
	<g>
		<path class="st0" d="M37.6,145.1c-0.9,0.7-0.6,1.3,0.5,1.3h127.2c1.1,0,1.3-0.6,0.5-1.3l-45.2-36.9c-0.9-0.7-2.3-0.7-3.1,0
			l-14.1,11c-0.9,0.7-2.3,0.7-3.2,0l-14.1-11c-0.9-0.7-2.3-0.7-3.1,0L37.6,145.1z"/>
	</g>
</g>
</svg>
