<?xml version="1.0" encoding="utf-8"?>
<!-- Generator: Adobe Illustrator 18.1.0, SVG Export Plug-In . SVG Version: 6.00 Build 0)  -->
<svg version="1.1" id="Layer_1" xmlns="http://www.w3.org/2000/svg" xmlns:xlink="http://www.w3.org/1999/xlink" x="0px" y="0px"
	 viewBox="-943 381 32 32" enable-background="new -943 381 32 32" xml:space="preserve">
<g transform="translate(96 240)">
	<path fill="#919191" d="M-1008.6,160.1v10.6h-6.2v-9.9c0-2.5-0.9-4.2-3.1-4.2c-1.7,0-2.7,1.1-3.2,2.3c-0.2,0.4-0.2,0.9-0.2,1.5
		v10.4h-6.2c0,0,0.1-16.8,0-18.6h6.2v2.6c0,0,0,0,0,0.1h0v-0.1c0.8-1.3,2.3-3.1,5.6-3.1C-1011.6,151.8-1008.6,154.4-1008.6,160.1
		L-1008.6,160.1z M-1033.9,143.2c-2.1,0-3.5,1.4-3.5,3.2c0,1.8,1.3,3.2,3.4,3.2h0c2.2,0,3.5-1.4,3.5-3.2
		C-1030.5,144.6-1031.8,143.2-1033.9,143.2L-1033.9,143.2z M-1037,170.8h6.2v-18.6h-6.2V170.8z"/>
</g>
</svg>
