<?xml version="1.0" encoding="utf-8"?>
<!-- Generator: Adobe Illustrator 19.0.0, SVG Export Plug-In . SVG Version: 6.00 Build 0)  -->
<svg version="1.1" id="layer1" xmlns="http://www.w3.org/2000/svg" xmlns:xlink="http://www.w3.org/1999/xlink" x="0px" y="0px"
	 viewBox="0 0 20 20" style="enable-background:new 0 0 20 20;" xml:space="preserve">
<style type="text/css">
	.st0{fill-rule:evenodd;clip-rule:evenodd;fill:#818181;}
</style>
<path id="XMLID_2_" class="st0" d="M11,10.3l6-6c-0.2-0.1-0.3-0.1-0.5-0.1h-13c-0.2,0-0.4,0-0.5,0.1l6,6C9.5,10.9,10.5,10.9,11,10.3
	z M18,5.4L11,12.3c-0.6,0.6-1.5,0.6-2.1,0L2,5.4c0,0.1,0,0.2,0,0.3v8.5c0,0.8,0.7,1.5,1.5,1.5h13c0.8,0,1.5-0.7,1.5-1.5V5.8
	C18,5.6,18,5.5,18,5.4z"/>
</svg>
